<svg enable-background="new 0 0 64 64" height="64px" version="1.1" viewBox="0 0 64 64" width="64px" xml:space="preserve" xmlns="http://www.w3.org/2000/svg" xmlns:xlink="http://www.w3.org/1999/xlink">
    <g>
        <circle cx="32" cy="32" fill="#1890ff" r="32" />
    </g>
    <g opacity="0.2">
        <g>
            <path d="M39.984,11.174C39.986,11.158,40,11.131,40,11.117C40,10.956,39.995,11.004,39.984,11.174z" fill="#231F20" />
        </g>
        <g>
            <path d="M24,11.117c0,0.016,0.015,0.044,0.018,0.062C24.006,11.005,24,10.954,24,11.117z" fill="#231F20" />
        </g>
    </g>
    <g>
        <g opacity="0.2">
            <path d="M48,32c0-6.469-3.847-12.027-9.37-14.549C36.904,16.727,36,18.046,36,19.117v8.5     C36,28.445,36.672,29,37.5,29h3.061c1.471,0,1.883,1.127,0.914,2.362l-7.713,9.829c-0.969,1.235-2.555,1.235-3.524,0     l-7.713-9.829C21.556,30.127,21.967,29,23.439,29H26.5c0.828,0,1.5-0.555,1.5-1.383v-8.5c0-1.105-1.504-2.142-2.753-1.61     c-0.003,0.001-0.005-0.002-0.008-0.001c-4.311,2.02-7.573,5.905-8.748,10.62C11.687,28.854,8,32.991,8,38c0,5.523,4.477,10,10,10     h30c4.418,0,8-3.582,8-8S52.418,32,48,32z" fill="#231F20" />
        </g>
        <g>
            <path d="M48,30c0-6.469-3.847-12.027-9.37-14.549C36.904,14.727,36,16.046,36,17.117v8.5     C36,26.445,36.672,27,37.5,27h3.061c1.471,0,1.883,1.127,0.914,2.362l-7.713,9.829c-0.969,1.235-2.555,1.235-3.524,0     l-7.713-9.829C21.556,28.127,21.967,27,23.439,27H26.5c0.828,0,1.5-0.555,1.5-1.383v-8.5c0-1.105-1.504-2.142-2.753-1.61     c-0.003,0.001-0.005-0.002-0.008-0.001c-4.311,2.02-7.573,5.905-8.748,10.62C11.687,26.854,8,30.991,8,36c0,5.523,4.477,10,10,10     h30c4.418,0,8-3.582,8-8S52.418,30,48,30z" fill="#FFFFFF" />
        </g>
        <g>
            <path d="M39.984,9.174C39.986,9.158,40,9.131,40,9.117C40,8.956,39.995,9.004,39.984,9.174z" fill="#8C81D4" />
        </g>
        <g>
            <path d="M24,9.117c0,0.016,0.015,0.044,0.018,0.062C24.006,9.005,24,8.954,24,9.117z" fill="#8C81D4" />
        </g>
    </g>
</svg>